<svg width="3022" height="988" viewBox="0 0 3022 988" fill="none" xmlns="http://www.w3.org/2000/svg">
<g clip-path="url(#clip0_1054_30373)">
<path d="M3021.93 840C3021.93 921.738 2955.67 988 2873.93 988H148C66.2618 988 0 921.738 0 840V148C0 66.2618 66.2619 0 148 0H2873.93C2955.67 0 3021.93 66.2619 3021.93 148V840Z" fill="white"/>
<path d="M828.37 559.081C839.154 540.712 865.938 540.712 876.604 559.081L991.206 754.863C1001.99 773.233 988.48 796.105 967.029 796.105H737.827C716.376 796.105 702.984 773.233 713.65 754.863L828.251 559.081H828.37Z" fill="#E6212F"/>
<path d="M759.148 428.715C769.577 410.464 769.577 387.947 759.148 369.577L665.168 205.675C654.62 187.306 628.31 187.306 617.763 205.675L303.232 754.742C292.684 773.111 305.839 796.102 326.934 796.102H514.776C535.752 796.102 555.07 784.844 565.499 766.593L759.029 428.715H759.148Z" fill="#E6212F"/>
<path d="M1357 238.43H1427.43C1441.35 238.43 1452.57 242.369 1461.1 250.245C1469.62 258.051 1473.88 269.051 1473.88 283.243C1473.88 295.449 1470.08 306.094 1462.48 315.177C1454.88 324.189 1443.2 328.696 1427.43 328.696H1378.2V394.798H1357V238.43ZM1452.47 283.35C1452.47 271.854 1448.21 264.048 1439.68 259.932C1434.99 257.732 1428.57 256.632 1420.4 256.632H1378.2V310.813H1420.4C1429.92 310.813 1437.62 308.79 1443.52 304.745C1449.48 300.7 1452.47 293.569 1452.47 283.35Z" fill="#E6212F"/>
<path d="M1538.87 382.455C1551.59 382.455 1560.29 377.665 1564.97 368.085C1569.73 358.434 1572.11 347.719 1572.11 335.939C1572.11 325.294 1570.41 316.637 1567 309.966C1561.6 299.464 1552.3 294.212 1539.08 294.212C1527.36 294.212 1518.84 298.683 1513.51 307.624C1508.19 316.566 1505.52 327.352 1505.52 339.984C1505.52 352.118 1508.19 362.231 1513.51 370.321C1518.84 378.41 1527.29 382.455 1538.87 382.455ZM1539.62 277.5C1554.32 277.5 1566.75 282.397 1576.91 292.19C1587.07 301.983 1592.14 316.388 1592.14 335.407C1592.14 353.786 1587.67 368.972 1578.72 380.965C1569.77 392.958 1555.88 398.954 1537.06 398.954C1521.36 398.954 1508.9 393.668 1499.66 383.094C1490.43 372.45 1485.81 358.186 1485.81 340.303C1485.81 321.143 1490.68 305.886 1500.41 294.532C1510.14 283.178 1523.21 277.5 1539.62 277.5Z" fill="#E6212F"/>
<path d="M1619.54 280.797L1641.49 370.637L1663.76 280.797H1685.28L1707.65 370.105L1730.99 280.797H1750.17L1717.03 394.8H1697.11L1673.88 306.557L1651.4 394.8H1631.47L1598.55 280.797H1619.54Z" fill="#E6212F"/>
<path d="M1811.53 278.242C1819.63 278.242 1827.48 280.158 1835.08 283.99C1842.68 287.751 1848.47 292.647 1852.45 298.679C1856.28 304.427 1858.85 311.133 1860.12 318.797C1861.25 324.048 1861.82 332.422 1861.82 343.918H1778.18C1778.54 355.485 1781.28 364.781 1786.4 371.807C1791.51 378.761 1799.42 382.238 1810.15 382.238C1820.16 382.238 1828.16 378.939 1834.12 372.339C1837.54 368.507 1839.94 364.072 1841.36 359.033H1860.22C1859.73 363.22 1858.06 367.904 1855.22 373.084C1852.45 378.194 1849.32 382.38 1845.84 385.645C1840.02 391.322 1832.81 395.154 1824.21 397.141C1819.59 398.276 1814.37 398.844 1808.55 398.844C1794.34 398.844 1782.3 393.699 1772.43 383.409C1762.56 373.049 1757.62 358.572 1757.62 339.98C1757.62 321.671 1762.59 306.804 1772.54 295.379C1782.48 283.954 1795.48 278.242 1811.53 278.242ZM1842.11 328.697C1841.33 320.394 1839.52 313.759 1836.68 308.791C1831.42 299.566 1822.65 294.953 1810.36 294.953C1801.55 294.953 1794.16 298.147 1788.2 304.534C1782.23 310.849 1779.07 318.904 1778.72 328.697H1842.11Z" fill="#E6212F"/>
<path d="M1881.65 280.796H1899.87V300.489C1901.36 296.657 1905.02 292.008 1910.85 286.544C1916.67 281.009 1923.38 278.242 1930.98 278.242C1931.34 278.242 1931.94 278.277 1932.8 278.348C1933.65 278.419 1935.1 278.561 1937.16 278.774V298.998C1936.03 298.785 1934.96 298.644 1933.97 298.573C1933.04 298.502 1932.01 298.466 1930.88 298.466C1921.22 298.466 1913.79 301.589 1908.61 307.833C1903.42 314.007 1900.83 321.139 1900.83 329.229V394.799H1881.65V280.796Z" fill="#E6212F"/>
<path d="M1996.93 278.242C2005.03 278.242 2012.88 280.158 2020.48 283.99C2028.08 287.751 2033.87 292.647 2037.84 298.679C2041.68 304.427 2044.24 311.133 2045.52 318.797C2046.65 324.048 2047.22 332.422 2047.22 343.918H1963.58C1963.94 355.485 1966.67 364.781 1971.79 371.807C1976.9 378.761 1984.82 382.238 1995.55 382.238C2005.56 382.238 2013.55 378.939 2019.52 372.339C2022.93 368.507 2025.34 364.072 2026.76 359.033H2045.62C2045.13 363.22 2043.46 367.904 2040.61 373.084C2037.84 378.194 2034.72 382.38 2031.24 385.645C2025.41 391.322 2018.2 395.154 2009.61 397.141C2004.99 398.276 1999.77 398.844 1993.95 398.844C1979.74 398.844 1967.7 393.699 1957.83 383.409C1947.96 373.049 1943.02 358.572 1943.02 339.98C1943.02 321.671 1947.99 306.804 1957.93 295.379C1967.88 283.954 1980.88 278.242 1996.93 278.242ZM2027.51 328.697C2026.73 320.394 2024.92 313.759 2022.08 308.791C2016.82 299.566 2008.05 294.953 1995.76 294.953C1986.95 294.953 1979.56 298.147 1973.6 304.534C1967.63 310.849 1964.47 318.904 1964.11 328.697H2027.51Z" fill="#E6212F"/>
<path d="M2078.66 339.127C2078.66 351.333 2081.25 361.552 2086.43 369.783C2091.62 378.015 2099.93 382.131 2111.37 382.131C2120.24 382.131 2127.53 378.334 2133.21 370.741C2138.96 363.077 2141.84 352.113 2141.84 337.85C2141.84 323.444 2138.89 312.8 2132.99 305.916C2127.1 298.962 2119.82 295.485 2111.15 295.485C2101.49 295.485 2093.64 299.175 2087.61 306.555C2081.64 313.935 2078.66 324.793 2078.66 339.127ZM2107.53 278.773C2116.27 278.773 2123.58 280.618 2129.48 284.308C2132.89 286.437 2136.76 290.162 2141.09 295.485V237.898H2159.52V394.798H2142.26V378.938C2137.79 385.963 2132.5 391.037 2126.39 394.159C2120.28 397.282 2113.28 398.843 2105.4 398.843C2092.68 398.843 2081.67 393.521 2072.37 382.876C2063.06 372.161 2058.41 357.932 2058.41 340.192C2058.41 323.586 2062.64 309.216 2071.09 297.081C2079.62 284.876 2091.76 278.773 2107.53 278.773Z" fill="#E6212F"/>
<path d="M2238.48 237.898H2257.13V294.633C2261.32 289.169 2266.33 285.018 2272.15 282.179C2277.98 279.27 2284.3 277.815 2291.12 277.815C2305.32 277.815 2316.83 282.711 2325.64 292.504C2334.52 302.226 2338.96 316.596 2338.96 335.614C2338.96 353.639 2334.59 368.612 2325.85 380.534C2317.12 392.456 2305 398.417 2289.52 398.417C2280.85 398.417 2273.54 396.324 2267.57 392.137C2264.02 389.653 2260.22 385.679 2256.17 380.215V394.798H2238.48V237.898ZM2288.35 381.492C2298.72 381.492 2306.46 377.376 2311.58 369.145C2316.76 360.913 2319.35 350.056 2319.35 336.573C2319.35 324.58 2316.76 314.645 2311.58 306.768C2306.46 298.891 2298.9 294.952 2288.88 294.952C2280.14 294.952 2272.47 298.181 2265.87 304.639C2259.33 311.097 2256.06 321.741 2256.06 336.573C2256.06 347.288 2257.41 355.981 2260.11 362.652C2265.16 375.212 2274.57 381.492 2288.35 381.492Z" fill="#E6212F"/>
<path d="M2428.36 280.797H2449.57C2446.87 288.106 2440.87 304.783 2431.56 330.826C2424.6 350.412 2418.77 366.379 2414.09 378.727C2403.01 407.822 2395.19 425.563 2390.65 431.949C2386.1 438.336 2378.29 441.529 2367.21 441.529C2364.51 441.529 2362.41 441.423 2360.92 441.21C2359.5 440.997 2357.72 440.607 2355.59 440.039V422.582C2358.93 423.505 2361.35 424.072 2362.84 424.285C2364.33 424.498 2365.64 424.605 2366.78 424.605C2370.33 424.605 2372.92 424.001 2374.56 422.795C2376.26 421.66 2377.68 420.24 2378.82 418.537C2379.18 417.97 2380.45 415.06 2382.66 409.809C2384.86 404.557 2386.46 400.654 2387.45 398.1L2345.26 280.797H2366.99L2397.57 373.617L2428.36 280.797Z" fill="#E6212F"/>
<path d="M1281.03 682.878V715.888H1261.02C1236.44 715.888 1228.01 705.018 1228.01 687.093C1216.07 705.328 1197.84 717.973 1168.69 717.973C1129.38 717.973 1102 698.673 1102 665.308C1102 628.439 1128.67 607.763 1178.85 607.763H1224.1V596.893C1224.1 576.883 1209.02 564.593 1184.44 564.593C1162.34 564.593 1147.21 575.108 1144.42 590.903H1107.19C1111.05 554.743 1140.87 534.023 1186.17 534.023C1233.91 534.023 1261.64 556.829 1261.64 599.289V670.189C1261.64 679.329 1266.21 682.834 1273.57 682.834H1280.94L1281.03 682.878ZM1224.19 635.848H1177.16C1154 635.848 1140.64 644.633 1140.64 662.868C1140.64 677.953 1153.29 688.469 1174.01 688.469C1205.6 688.469 1223.83 669.878 1224.19 642.148V635.848Z" fill="#E6212F"/>
<path d="M1321.44 536.148L1370.91 675.154L1419.71 536.148H1459.73L1393.4 715.839H1347.08L1280.75 536.148H1321.48H1321.44Z" fill="#E6212F"/>
<path d="M1649.99 682.878V715.888H1629.98C1605.4 715.888 1596.97 705.018 1596.97 687.093C1585.04 705.328 1566.8 717.973 1537.65 717.973C1498.34 717.973 1470.97 698.673 1470.97 665.308C1470.97 628.439 1497.63 607.763 1547.81 607.763H1593.07V596.893C1593.07 576.883 1577.98 564.593 1553.4 564.593C1531.31 564.593 1516.18 575.108 1513.38 590.903H1476.16C1480.02 554.743 1509.84 534.023 1555.13 534.023C1602.87 534.023 1630.6 556.829 1630.6 599.289V670.189C1630.6 679.329 1635.17 682.834 1642.54 682.834H1649.9L1649.99 682.878ZM1593.11 635.848H1546.08C1522.92 635.848 1509.57 644.633 1509.57 662.868C1509.57 677.953 1522.21 688.469 1542.93 688.469C1574.52 688.469 1592.76 669.878 1593.11 642.148V635.848Z" fill="#E6212F"/>
<path d="M1719.13 470.164V715.83H1681.24V470.164H1719.13Z" fill="#E6212F"/>
<path d="M1931.79 682.878V715.888H1911.78C1887.2 715.888 1878.77 705.018 1878.77 687.093C1866.84 705.328 1848.6 717.973 1819.45 717.973C1780.14 717.973 1752.77 698.673 1752.77 665.308C1752.77 628.439 1779.43 607.763 1829.61 607.763H1874.87V596.893C1874.87 576.883 1859.78 564.593 1835.2 564.593C1813.11 564.593 1798.02 575.108 1795.18 590.903H1757.96C1761.82 554.743 1791.63 534.023 1836.93 534.023C1884.67 534.023 1912.4 556.829 1912.4 599.289V670.189C1912.4 679.329 1916.97 682.834 1924.34 682.834H1931.7L1931.79 682.878ZM1874.91 635.848H1827.88C1804.72 635.848 1791.37 644.633 1791.37 662.868C1791.37 677.953 1804.01 688.469 1824.69 688.469C1856.28 688.469 1874.51 669.878 1874.87 642.148V635.848H1874.91Z" fill="#E6212F"/>
<path d="M2130.08 616.908V715.893H2091.84V619.038C2091.84 585.007 2077.46 566.728 2049.02 566.728C2018.85 566.728 2000.93 588.823 2000.93 625.338V715.893H1963.04V536.202H1996.05L2000.26 559.717C2011.49 545.697 2028.7 534.117 2057.81 534.117C2096.41 534.117 2130.13 554.837 2130.13 616.952L2130.08 616.908Z" fill="#E6212F"/>
<path d="M2247.36 717.952C2193.32 717.952 2157.87 681.083 2157.87 625.667C2157.87 570.251 2193.67 534.047 2248.42 534.047C2293.68 534.047 2323.18 559.647 2330.19 600.022H2291.24C2286.31 579.657 2270.16 566.347 2247.36 566.347C2216.83 566.347 2196.82 590.572 2196.82 625.667C2196.82 660.762 2216.83 685.697 2247.36 685.697C2270.87 685.697 2287.02 672.342 2291.59 651.312H2330.19C2323.18 692.396 2293.32 717.997 2247.36 717.997V717.952Z" fill="#E6212F"/>
<path d="M2520.73 616.915V715.9H2482.83V619.045C2482.83 585.015 2467.75 566.735 2439.66 566.735C2409.85 566.735 2391.57 588.83 2391.57 624.99V715.9H2353.68V470.234H2391.57V562.209C2402.8 546.769 2420.01 534.124 2448.09 534.124C2487.05 534.124 2520.73 555.199 2520.73 616.959V616.915Z" fill="#E6212F"/>
<path d="M2635.9 534.047C2687.85 534.047 2723.66 567.057 2724.68 619.677C2724.68 624.247 2724.33 629.172 2723.62 634.052H2588.12V636.182C2589.89 667.062 2608.48 687.072 2638.3 687.072C2661.46 687.072 2678.32 675.492 2683.55 655.482H2721.44C2715.14 690.932 2685.28 717.952 2641.05 717.952C2584.21 717.952 2548.41 681.438 2548.41 626.332C2548.41 571.227 2583.86 534.047 2635.81 534.047H2635.9ZM2686.08 606.322C2682.93 579.657 2663.63 564.572 2637.28 564.572C2613.05 564.572 2592.33 580.722 2589.54 606.322H2686.04H2686.08Z" fill="#E6212F"/>
</g>
<defs>
<clipPath id="clip0_1054_30373">
<rect width="3022" height="988" fill="white"/>
</clipPath>
</defs>
</svg>
